<?xml version="1.0" encoding="UTF-8"?>
<svg fill="none" viewBox="0 0 149 32" xmlns="http://www.w3.org/2000/svg">
<g clip-path="url(#b)">
<path d="m41.515 20.582 4.3518-12.735h2.8118l-7.0967 20.128-7.5876-20.128h2.8567l4.664 12.735z" fill="#B90E00"/>
<rect x="52.275" y="7.8301" width="2.6186" height="16.766" fill="#B90E00"/>
<path d="m68.234 21.232c-0.4741 1.6254-1.9415 2.912-3.7699 3.2732-0.3388 0.0679-0.6771 0.0903-1.0159 0.0903-0.677 0-1.3542-0.1128-1.9861-0.3612-1.0614-0.4289-1.9865-1.1287-2.7767-2.1443l2.0769-1.6252c0.474 0.6319 1.0381 1.0835 1.6476 1.3091 0.4967 0.203 1.0383 0.2482 1.5351 0.1353 0.8575-0.1579 1.5575-0.7223 1.7609-1.3994 0.2256-0.7675-0.2936-1.4448-0.7678-1.8962-0.7449-0.6999-1.9637-1.8961-2.0539-1.9865l-2.0543-1.9412c-0.632-0.6096-1.0609-1.2867-1.2866-2.009-0.2258-0.6997-0.2482-1.4446-0.045-2.1218 0.203-0.72247 0.6318-1.3545 1.2412-1.8736 0.5644-0.47401 1.2642-0.81259 2.0091-0.94808 0.8129-0.18057 1.6703-0.11289 2.4829 0.18068 0.858 0.33845 1.6254 0.90289 2.2801 1.6929l-2.0542 1.6477c-0.8579-1.0383-1.7383-1.0383-2.2122-0.9481-0.5866 0.1129-1.0836 0.4966-1.219 0.9707-0.0902 0.3159-0.0677 0.8352 0.6324 1.5124l2.7988 2.6862c0.4063 0.4064 0.9029 0.8802 1.2641 1.219 0.7222 0.6547 1.2191 1.3995 1.4671 2.1896 0.2485 0.7673 0.271 1.5803 0.0454 2.3474" fill="#B90E00"/>
<rect x="72.025" y="7.8301" width="2.6185" height="16.766" fill="#B90E00"/>
<path d="m81.415 7.8467h2.7538c2.2122 0 3.499 0.90307 4.1761 1.648 0.903 0.9932 1.3545 2.325 1.3545 3.8825 0 1.5576-0.4515 2.912-1.3545 3.8827-0.6771 0.7674-1.9639 1.6704-4.1761 1.6704h-2.3475v5.6658h-2.6185v-16.749h2.2122zm5.9364 5.5308c0-0.6546-0.1357-1.6025-0.7452-2.2799-0.5417-0.5868-1.3543-0.9028-2.4378-0.9028h-2.3476v6.3658h2.3476c1.0835 0 1.8961-0.2936 2.4378-0.8804 0.6095-0.6773 0.7452-1.6254 0.7452-2.3027" clip-rule="evenodd" fill="#B90E00" fill-rule="evenodd"/>
<path d="m97.534 23.941c-1.0158-0.4289-1.896-1.0382-2.6634-1.8056-0.7673-0.7677-1.377-1.6479-1.806-2.6638-0.4288-1.0158-0.6545-2.1218-0.6545-3.2504 0-1.1288 0.2257-2.2349 0.6545-3.2733 0.429-0.9932 1.0387-1.8735 1.806-2.6636 0.7674-0.7675 1.6476-1.3544 2.6634-1.7833 1.0158-0.42875 2.1221-0.65472 3.2509-0.65472 1.128 0 2.234 0.22598 3.273 0.65472 0.993 0.42888 1.873 1.0158 2.663 1.7833 0.768 0.7901 1.355 1.6704 1.784 2.6636 0.429 1.0384 0.654 2.1445 0.654 3.2733 0 1.1286-0.225 2.2346-0.654 3.2504-0.429 1.0159-1.016 1.8961-1.784 2.6638-0.79 0.7674-1.67 1.3767-2.663 1.8056-1.039 0.4291-2.145 0.6547-3.273 0.6547-1.1288 0-2.2351-0.2256-3.2509-0.6547zm-0.8129-11.783c-1.0833 1.0835-1.6931 2.5281-1.6931 4.0634 0 1.5349 0.6098 2.9795 1.6931 4.063 1.084 1.0835 2.5283 1.6929 4.0638 1.6929 1.535 0 2.979-0.6094 4.063-1.6929 1.083-1.0835 1.693-2.5281 1.693-4.063 0-1.5353-0.61-2.9799-1.693-4.0634-1.084-1.0835-2.528-1.6929-4.063-1.6929-1.5355 0-2.9798 0.6094-4.0638 1.6929z" clip-rule="evenodd" fill="#B90E00" fill-rule="evenodd"/>
<path d="m123 13.828v10.767h-2.618v-17.539l10.519 11.535v-10.745h2.641v17.517l-10.542-11.535z" fill="#B90E00"/>
<path d="m148.89 10.194h-4.605v14.402h-2.641v-14.402h-4.605v-2.3478h11.851v2.3478z" fill="#B90E00"/>
<path d="m41.515 20.582 4.3518-12.735h2.8118l-7.0967 20.128-7.5876-20.128h2.8567l4.664 12.735z" fill="#B90E00"/>
<rect x="52.275" y="7.8301" width="2.6186" height="16.766" fill="#B90E00"/>
<path d="m68.234 21.232c-0.4741 1.6254-1.9415 2.912-3.7699 3.2732-0.3388 0.0679-0.6771 0.0903-1.0159 0.0903-0.677 0-1.3542-0.1128-1.9861-0.3612-1.0614-0.4289-1.9865-1.1287-2.7767-2.1443l2.0769-1.6252c0.474 0.6319 1.0381 1.0835 1.6476 1.3091 0.4967 0.203 1.0383 0.2482 1.5351 0.1353 0.8575-0.1579 1.5575-0.7223 1.7609-1.3994 0.2256-0.7675-0.2936-1.4448-0.7678-1.8962-0.7449-0.6999-1.9637-1.8961-2.0539-1.9865l-2.0543-1.9412c-0.632-0.6096-1.0609-1.2867-1.2866-2.009-0.2258-0.6997-0.2482-1.4446-0.045-2.1218 0.203-0.72247 0.6318-1.3545 1.2412-1.8736 0.5644-0.47401 1.2642-0.81259 2.0091-0.94808 0.8129-0.18057 1.6703-0.11289 2.4829 0.18068 0.858 0.33845 1.6254 0.90289 2.2801 1.6929l-2.0542 1.6477c-0.8579-1.0383-1.7383-1.0383-2.2122-0.9481-0.5866 0.1129-1.0836 0.4966-1.219 0.9707-0.0902 0.3159-0.0677 0.8352 0.6324 1.5124l2.7988 2.6862c0.4063 0.4064 0.9029 0.8802 1.2641 1.219 0.7222 0.6547 1.2191 1.3995 1.4671 2.1896 0.2485 0.7673 0.271 1.5803 0.0454 2.3474" fill="#B90E00"/>
<rect x="72.025" y="7.8301" width="2.6185" height="16.766" fill="#B90E00"/>
<path d="m81.415 7.8467h2.7538c2.2122 0 3.499 0.90307 4.1761 1.648 0.903 0.9932 1.3545 2.325 1.3545 3.8825 0 1.5576-0.4515 2.912-1.3545 3.8827-0.6771 0.7674-1.9639 1.6704-4.1761 1.6704h-2.3475v5.6658h-2.6185v-16.749h2.2122zm5.9364 5.5308c0-0.6546-0.1357-1.6025-0.7452-2.2799-0.5417-0.5868-1.3543-0.9028-2.4378-0.9028h-2.3476v6.3658h2.3476c1.0835 0 1.8961-0.2936 2.4378-0.8804 0.6095-0.6773 0.7452-1.6254 0.7452-2.3027" clip-rule="evenodd" fill="#B90E00" fill-rule="evenodd"/>
<path d="m97.534 23.941c-1.0158-0.4289-1.896-1.0382-2.6634-1.8056-0.7673-0.7677-1.377-1.6479-1.806-2.6638-0.4288-1.0158-0.6545-2.1218-0.6545-3.2504 0-1.1288 0.2257-2.2349 0.6545-3.2733 0.429-0.9932 1.0387-1.8735 1.806-2.6636 0.7674-0.7675 1.6476-1.3544 2.6634-1.7833 1.0158-0.42875 2.1221-0.65472 3.2509-0.65472 1.128 0 2.234 0.22598 3.273 0.65472 0.993 0.42888 1.873 1.0158 2.663 1.7833 0.768 0.7901 1.355 1.6704 1.784 2.6636 0.429 1.0384 0.654 2.1445 0.654 3.2733 0 1.1286-0.225 2.2346-0.654 3.2504-0.429 1.0159-1.016 1.8961-1.784 2.6638-0.79 0.7674-1.67 1.3767-2.663 1.8056-1.039 0.4291-2.145 0.6547-3.273 0.6547-1.1288 0-2.2351-0.2256-3.2509-0.6547zm-0.8129-11.783c-1.0833 1.0835-1.6931 2.5281-1.6931 4.0634 0 1.5349 0.6098 2.9795 1.6931 4.063 1.084 1.0835 2.5283 1.6929 4.0638 1.6929 1.535 0 2.979-0.6094 4.063-1.6929 1.083-1.0835 1.693-2.5281 1.693-4.063 0-1.5353-0.61-2.9799-1.693-4.0634-1.084-1.0835-2.528-1.6929-4.063-1.6929-1.5355 0-2.9798 0.6094-4.0638 1.6929z" clip-rule="evenodd" fill="#B90E00" fill-rule="evenodd"/>
<path d="m123 13.828v10.767h-2.618v-17.539l10.519 11.535v-10.745h2.641v17.517l-10.542-11.535z" fill="#B90E00"/>
<path d="m148.89 10.194h-4.605v14.402h-2.641v-14.402h-4.605v-2.3478h11.851v2.3478z" fill="#B90E00"/>
<g clip-path="url(#a)" fill="#001C33">
<path d="m14.173 0.73926c-7.8276 0-14.173 6.7935-14.173 15.173 0 8.38 6.3456 15.173 14.173 15.173 7.8276 0 14.173-6.7932 14.173-15.173 0-8.3799-6.3456-15.173-14.173-15.173zm2.7809 24.918h-6.5744l1.4069-1.7439c1.8864-2.3375 2.6812-4.5629 2.3629-6.614-0.4717-3.0419-3.2687-4.8248-3.2969-4.8424l-0.89321-0.5518 0.55811-0.9284 3.0878-5.1672c0.2931-0.49055 0.9023-0.63402 1.3606-0.32005 0.4583 0.31391 0.5922 0.96599 0.2989 1.4567l-2.5772 4.3131c1.1081 0.922 2.9551 2.8418 3.402 5.673 0.3399 2.1503-0.1886 4.3688-1.5713 6.6159h2.4358c0.5439 0 0.9851 0.4721 0.9851 1.0545s-0.4412 1.0546-0.9851 1.0546" clip-rule="evenodd" fill-rule="evenodd"/>
<path d="m117.06 16.017c0 2.588-1.097 4.686-2.45 4.686-1.352 0-2.449-2.098-2.449-4.686 0-1.5111 0.497-3.8897 1.181-4.6858 0.361-0.4196 0.636 0 1.268 0 0.502 0 1.118-0.4139 1.384-0.0331 0.606 0.8695 1.066 3.0915 1.066 4.7189"/>
<rect x="113.31" y="11.482" width="2.6185" height="11.956"/>
<path d="m116.41 8.4899c0-0.989-0.802-1.7907-1.791-1.7907s-1.791 0.8017-1.791 1.7907c0 0.98923 0.802 1.7911 1.791 1.7911s1.791-0.80185 1.791-1.7911z"/>
</g>
</g>
<defs>
<clipPath id="b">
<rect transform="translate(0 .73926)" width="148.89" height="30.445" fill="#fff"/>
</clipPath>
<clipPath id="a">
<rect transform="translate(0 .73926)" width="117.06" height="30.347" fill="#fff"/>
</clipPath>
</defs>
</svg>
