<?xml version="1.0" standalone="no"?>
<!DOCTYPE svg PUBLIC "-//W3C//DTD SVG 20010904//EN"
 "http://www.w3.org/TR/2001/REC-SVG-20010904/DTD/svg10.dtd">
<svg version="1.0" xmlns="http://www.w3.org/2000/svg"
 width="512.000000pt" height="512.000000pt" viewBox="0 0 512.000000 512.000000"
 preserveAspectRatio="xMidYMid meet">

<g transform="translate(0.000000,512.000000) scale(0.100000,-0.100000)"
fill="#000000" stroke="none">
<path d="M2305 5019 c-831 -85 -1560 -584 -1938 -1327 -278 -546 -340 -1187
-171 -1780 67 -238 175 -470 314 -679 110 -165 188 -259 336 -403 372 -362
808 -579 1339 -667 157 -26 562 -26 725 0 432 69 826 242 1167 515 478 382
791 929 889 1554 25 159 26 537 1 698 -22 144 -68 331 -113 464 -80 230 -252
536 -417 741 -76 94 -273 288 -372 366 -357 283 -790 461 -1245 513 -142 17
-380 19 -515 5z m370 -752 c80 -45 107 -144 61 -228 -13 -24 -119 -192 -235
-374 l-211 -330 47 -39 c89 -72 231 -225 297 -317 124 -173 209 -369 242 -559
24 -139 15 -369 -20 -507 -42 -168 -113 -336 -206 -488 -22 -36 -40 -68 -40
-70 0 -3 104 -5 230 -5 253 0 265 -2 313 -60 78 -92 34 -238 -80 -269 -40 -11
-1173 -16 -1173 -5 0 3 70 87 156 187 230 268 321 401 404 595 70 161 85 235
85 417 0 185 -11 236 -80 381 -108 230 -292 426 -539 572 l-106 63 24 37 c275
435 622 969 635 980 57 46 135 54 196 19z"/>
</g>
</svg>
