<svg width="149" height="32" viewBox="0 0 149 32" fill="none" xmlns="http://www.w3.org/2000/svg">
<g clip-path="url(#clip0)">
<path d="M41.5148 20.5817L45.8666 7.84668H48.6784L41.5817 27.9746L33.9941 7.84668H36.8508L41.5148 20.5817Z" fill="#B90E00"/>
<rect x="52.2754" y="7.83008" width="2.61857" height="16.7664" fill="#B90E00"/>
<path d="M68.2341 21.232C67.76 22.8574 66.2926 24.144 64.4642 24.5052C64.1254 24.5731 63.7871 24.5955 63.4483 24.5955C62.7713 24.5955 62.0941 24.4827 61.4622 24.2343C60.4008 23.8054 59.4757 23.1056 58.6855 22.09L60.7624 20.4648C61.2364 21.0967 61.8005 21.5483 62.41 21.7739C62.9067 21.9769 63.4483 22.0221 63.9451 21.9092C64.8026 21.7513 65.5026 21.1869 65.706 20.5098C65.9316 19.7423 65.4124 19.065 64.9382 18.6136C64.1933 17.9137 62.9745 16.7175 62.8843 16.6271L60.83 14.6859C60.198 14.0763 59.7691 13.3992 59.5434 12.6769C59.3176 11.9772 59.2952 11.2323 59.4984 10.5551C59.7014 9.83263 60.1302 9.20056 60.7396 8.68148C61.304 8.20747 62.0038 7.86889 62.7487 7.7334C63.5616 7.55283 64.419 7.62051 65.2316 7.91408C66.0896 8.25253 66.857 8.81697 67.5117 9.60699L65.4575 11.2547C64.5996 10.2164 63.7192 10.2164 63.2453 10.3066C62.6587 10.4195 62.1617 10.8032 62.0263 11.2773C61.9361 11.5932 61.9586 12.1125 62.6587 12.7897L65.4575 15.4759C65.8638 15.8823 66.3604 16.3561 66.7216 16.6949C67.4438 17.3496 67.9407 18.0944 68.1887 18.8845C68.4372 19.6518 68.4597 20.4648 68.2341 21.2319" fill="#B90E00"/>
<rect x="72.0254" y="7.83008" width="2.61849" height="16.7664" fill="#B90E00"/>
<path fill-rule="evenodd" clip-rule="evenodd" d="M81.4153 7.84668H84.1691C86.3813 7.84668 87.6681 8.74975 88.3452 9.4947C89.2482 10.4879 89.6997 11.8197 89.6997 13.3772C89.6997 14.9348 89.2482 16.2892 88.3452 17.2599C87.6681 18.0273 86.3813 18.9303 84.1691 18.9303H81.8216V24.5961H79.2031V7.84668H81.4153ZM87.3517 13.3775C87.3517 12.7229 87.216 11.775 86.6065 11.0976C86.0648 10.5108 85.2522 10.1948 84.1687 10.1948H81.8211V16.5606H84.1687C85.2522 16.5606 86.0648 16.267 86.6065 15.6802C87.216 15.0029 87.3517 14.0548 87.3517 13.3775" fill="#B90E00"/>
<path fill-rule="evenodd" clip-rule="evenodd" d="M97.5341 23.9414C96.5183 23.5125 95.6381 22.9032 94.8707 22.1358C94.1034 21.3681 93.4937 20.4879 93.0647 19.472C92.6359 18.4562 92.4102 17.3502 92.4102 16.2216C92.4102 15.0928 92.6359 13.9867 93.0647 12.9483C93.4937 11.9551 94.1034 11.0748 94.8707 10.2847C95.6381 9.5172 96.5183 8.93028 97.5341 8.5014C98.5499 8.07265 99.6562 7.84668 100.785 7.84668C101.913 7.84668 103.019 8.07266 104.058 8.5014C105.051 8.93028 105.931 9.5172 106.721 10.2847C107.489 11.0748 108.076 11.9551 108.505 12.9483C108.934 13.9867 109.159 15.0928 109.159 16.2216C109.159 17.3502 108.934 18.4562 108.505 19.472C108.076 20.4879 107.489 21.3681 106.721 22.1358C105.931 22.9032 105.051 23.5125 104.058 23.9414C103.019 24.3705 101.913 24.5961 100.785 24.5961C99.6562 24.5961 98.5499 24.3705 97.5341 23.9414ZM96.7212 12.1583C95.6379 13.2418 95.0281 14.6864 95.0281 16.2217C95.0281 17.7566 95.6379 19.2012 96.7212 20.2847C97.8052 21.3682 99.2495 21.9776 100.785 21.9776C102.32 21.9776 103.764 21.3682 104.848 20.2847C105.931 19.2012 106.541 17.7566 106.541 16.2217C106.541 14.6864 105.931 13.2418 104.848 12.1583C103.764 11.0748 102.32 10.4654 100.785 10.4654C99.2495 10.4654 97.8052 11.0748 96.7212 12.1583Z" fill="#B90E00"/>
<path d="M122.995 13.8285V24.5959H120.377V7.05664L130.896 18.5916V7.84655H133.537V25.3635L122.995 13.8285Z" fill="#B90E00"/>
<path d="M148.888 10.1945H144.283V24.596H141.642V10.1945H137.037V7.84668H148.888V10.1945Z" fill="#B90E00"/>
<path d="M41.5148 20.5817L45.8666 7.84668H48.6784L41.5817 27.9746L33.9941 7.84668H36.8508L41.5148 20.5817Z" fill="#B90E00"/>
<rect x="52.2754" y="7.83008" width="2.61857" height="16.7664" fill="#B90E00"/>
<path d="M68.2341 21.232C67.76 22.8574 66.2926 24.144 64.4642 24.5052C64.1254 24.5731 63.7871 24.5955 63.4483 24.5955C62.7713 24.5955 62.0941 24.4827 61.4622 24.2343C60.4008 23.8054 59.4757 23.1056 58.6855 22.09L60.7624 20.4648C61.2364 21.0967 61.8005 21.5483 62.41 21.7739C62.9067 21.9769 63.4483 22.0221 63.9451 21.9092C64.8026 21.7513 65.5026 21.1869 65.706 20.5098C65.9316 19.7423 65.4124 19.065 64.9382 18.6136C64.1933 17.9137 62.9745 16.7175 62.8843 16.6271L60.83 14.6859C60.198 14.0763 59.7691 13.3992 59.5434 12.6769C59.3176 11.9772 59.2952 11.2323 59.4984 10.5551C59.7014 9.83263 60.1302 9.20056 60.7396 8.68148C61.304 8.20747 62.0038 7.86889 62.7487 7.7334C63.5616 7.55283 64.419 7.62051 65.2316 7.91408C66.0896 8.25253 66.857 8.81697 67.5117 9.60699L65.4575 11.2547C64.5996 10.2164 63.7192 10.2164 63.2453 10.3066C62.6587 10.4195 62.1617 10.8032 62.0263 11.2773C61.9361 11.5932 61.9586 12.1125 62.6587 12.7897L65.4575 15.4759C65.8638 15.8823 66.3604 16.3561 66.7216 16.6949C67.4438 17.3496 67.9407 18.0944 68.1887 18.8845C68.4372 19.6518 68.4597 20.4648 68.2341 21.2319" fill="#B90E00"/>
<rect x="72.0254" y="7.83008" width="2.61849" height="16.7664" fill="#B90E00"/>
<path fill-rule="evenodd" clip-rule="evenodd" d="M81.4153 7.84668H84.1691C86.3813 7.84668 87.6681 8.74975 88.3452 9.4947C89.2482 10.4879 89.6997 11.8197 89.6997 13.3772C89.6997 14.9348 89.2482 16.2892 88.3452 17.2599C87.6681 18.0273 86.3813 18.9303 84.1691 18.9303H81.8216V24.5961H79.2031V7.84668H81.4153ZM87.3517 13.3775C87.3517 12.7229 87.216 11.775 86.6065 11.0976C86.0648 10.5108 85.2522 10.1948 84.1687 10.1948H81.8211V16.5606H84.1687C85.2522 16.5606 86.0648 16.267 86.6065 15.6802C87.216 15.0029 87.3517 14.0548 87.3517 13.3775" fill="#B90E00"/>
<path fill-rule="evenodd" clip-rule="evenodd" d="M97.5341 23.9414C96.5183 23.5125 95.6381 22.9032 94.8707 22.1358C94.1034 21.3681 93.4937 20.4879 93.0647 19.472C92.6359 18.4562 92.4102 17.3502 92.4102 16.2216C92.4102 15.0928 92.6359 13.9867 93.0647 12.9483C93.4937 11.9551 94.1034 11.0748 94.8707 10.2847C95.6381 9.5172 96.5183 8.93028 97.5341 8.5014C98.5499 8.07265 99.6562 7.84668 100.785 7.84668C101.913 7.84668 103.019 8.07266 104.058 8.5014C105.051 8.93028 105.931 9.5172 106.721 10.2847C107.489 11.0748 108.076 11.9551 108.505 12.9483C108.934 13.9867 109.159 15.0928 109.159 16.2216C109.159 17.3502 108.934 18.4562 108.505 19.472C108.076 20.4879 107.489 21.3681 106.721 22.1358C105.931 22.9032 105.051 23.5125 104.058 23.9414C103.019 24.3705 101.913 24.5961 100.785 24.5961C99.6562 24.5961 98.5499 24.3705 97.5341 23.9414ZM96.7212 12.1583C95.6379 13.2418 95.0281 14.6864 95.0281 16.2217C95.0281 17.7566 95.6379 19.2012 96.7212 20.2847C97.8052 21.3682 99.2495 21.9776 100.785 21.9776C102.32 21.9776 103.764 21.3682 104.848 20.2847C105.931 19.2012 106.541 17.7566 106.541 16.2217C106.541 14.6864 105.931 13.2418 104.848 12.1583C103.764 11.0748 102.32 10.4654 100.785 10.4654C99.2495 10.4654 97.8052 11.0748 96.7212 12.1583Z" fill="#B90E00"/>
<path d="M122.995 13.8285V24.5959H120.377V7.05664L130.896 18.5916V7.84655H133.537V25.3635L122.995 13.8285Z" fill="#B90E00"/>
<path d="M148.888 10.1945H144.283V24.596H141.642V10.1945H137.037V7.84668H148.888V10.1945Z" fill="#B90E00"/>
<g clip-path="url(#clip1)">
<path fill-rule="evenodd" clip-rule="evenodd" d="M14.1733 0.739258C6.34565 0.739258 0 7.53273 0 15.9126C0 24.2926 6.34565 31.0858 14.1733 31.0858C22.0009 31.0858 28.3465 24.2926 28.3465 15.9126C28.3465 7.53273 22.0009 0.739258 14.1733 0.739258ZM16.9542 25.6568H10.3798L11.7867 23.9129C13.6731 21.5754 14.4679 19.35 14.1496 17.2989C13.6779 14.257 10.8809 12.4741 10.8527 12.4565L9.95949 11.9047L10.5176 10.9763L13.6054 5.8091C13.8985 5.31855 14.5077 5.17508 14.966 5.48905C15.4243 5.80296 15.5582 6.45504 15.2649 6.94571L12.6877 11.2588C13.7958 12.1808 15.6428 14.1006 16.0897 16.9318C16.4296 19.0821 15.9011 21.3006 14.5184 23.5477H16.9542C17.4981 23.5477 17.9393 24.0198 17.9393 24.6022C17.9393 25.1846 17.4981 25.6568 16.9542 25.6568" fill="#001C33"/>
<path d="M117.063 16.0167C117.063 18.6047 115.966 20.7027 114.613 20.7027C113.261 20.7027 112.164 18.6047 112.164 16.0167C112.164 14.5056 112.661 12.127 113.345 11.3309C113.706 10.9113 113.981 11.3309 114.613 11.3309C115.115 11.3309 115.731 10.917 115.997 11.2978C116.603 12.1673 117.063 14.3893 117.063 16.0167" fill="#001C33"/>
<rect x="113.311" y="11.4824" width="2.61848" height="11.956" fill="#001C33"/>
<path d="M116.41 8.48992C116.41 7.50092 115.608 6.69922 114.619 6.69922C113.63 6.69922 112.828 7.50092 112.828 8.48992C112.828 9.47915 113.63 10.281 114.619 10.281C115.608 10.281 116.41 9.47915 116.41 8.48992Z" fill="#001C33"/>
</g>
</g>
<defs>
<clipPath id="clip0">
<rect width="148.886" height="30.4448" fill="white" transform="translate(0 0.739258)"/>
</clipPath>
<clipPath id="clip1">
<rect width="117.062" height="30.3466" fill="white" transform="translate(0 0.739258)"/>
</clipPath>
</defs>
</svg>