<svg width="149" height="29" viewBox="0 0 149 29" fill="none" xmlns="http://www.w3.org/2000/svg">
<g id="visipoint logo" clip-path="url(#clip0)">
<g id="Group 1">
<path id="Path 1" d="M41.5148 17.8419L45.8666 5.10693H48.6784L41.5817 25.2349L33.9941 5.10693H36.8508L41.5148 17.8419Z" fill="#B90E00"/>
<rect id="Rectangle 1" x="52.2754" y="5.09033" width="2.61857" height="16.7664" fill="#B90E00"/>
<path id="Path 2" d="M68.2341 18.4932C67.76 20.1186 66.2926 21.4052 64.4642 21.7664C64.1254 21.8343 63.7871 21.8568 63.4483 21.8568C62.7713 21.8568 62.0941 21.7439 61.4622 21.4956C60.4008 21.0667 59.4757 20.3668 58.6855 19.3512L60.7624 17.726C61.2364 18.358 61.8005 18.8095 62.41 19.0351C62.9067 19.2381 63.4483 19.2834 63.9451 19.1704C64.8026 19.0125 65.5026 18.4481 65.706 17.7711C65.9316 17.0036 65.4124 16.3262 64.9382 15.8749C64.1933 15.175 62.9745 13.9788 62.8843 13.8883L60.83 11.9471C60.198 11.3376 59.7691 10.6604 59.5434 9.9381C59.3176 9.23845 59.2952 8.4935 59.4984 7.81636C59.7014 7.09386 60.1302 6.46179 60.7396 5.94271C61.304 5.4687 62.0038 5.13012 62.7487 4.99463C63.5616 4.81406 64.419 4.88175 65.2316 5.17531C66.0896 5.51376 66.857 6.0782 67.5117 6.86822L65.4575 8.51595C64.5996 7.47762 63.7192 7.47762 63.2453 7.56787C62.6587 7.68068 62.1617 8.06439 62.0263 8.53857C61.9361 8.85446 61.9586 9.37378 62.6587 10.0509L65.4575 12.7372C65.8638 13.1435 66.3604 13.6174 66.7216 13.9561C67.4438 14.6108 67.9407 15.3556 68.1887 16.1457C68.4372 16.9131 68.4597 17.726 68.2341 18.4932" fill="#B90E00"/>
<rect id="Rectangle 2" x="72.0254" y="5.09033" width="2.61849" height="16.7664" fill="#B90E00"/>
<path id="Path 3" fill-rule="evenodd" clip-rule="evenodd" d="M81.4153 5.10693H84.1691C86.3813 5.10693 87.6681 6.01 88.3452 6.75495C89.2482 7.74819 89.6997 9.07998 89.6997 10.6374C89.6997 12.1951 89.2482 13.5494 88.3452 14.5201C87.6681 15.2876 86.3813 16.1905 84.1691 16.1905H81.8216V21.8563H79.2031V5.10693H81.4153ZM87.3517 10.6378C87.3517 9.98316 87.216 9.03524 86.6065 8.3579C86.0648 7.77107 85.2522 7.45507 84.1687 7.45507H81.8211V13.8208H84.1687C85.2522 13.8208 86.0648 13.5273 86.6065 12.9404C87.216 12.2631 87.3517 11.315 87.3517 10.6378" fill="#B90E00"/>
<path id="Path 4" fill-rule="evenodd" clip-rule="evenodd" d="M97.5341 21.2017C96.5183 20.7728 95.6381 20.1635 94.8707 19.396C94.1034 18.6284 93.4937 17.7481 93.0647 16.7323C92.6359 15.7165 92.4102 14.6105 92.4102 13.4819C92.4102 12.353 92.6359 11.247 93.0647 10.2085C93.4937 9.21535 94.1034 8.33502 94.8707 7.54494C95.6381 6.77745 96.5183 6.19054 97.5341 5.76165C98.5499 5.33291 99.6562 5.10693 100.785 5.10693C101.913 5.10693 103.019 5.33292 104.058 5.76165C105.051 6.19054 105.931 6.77745 106.721 7.54494C107.489 8.33502 108.076 9.21535 108.505 10.2085C108.934 11.247 109.159 12.353 109.159 13.4819C109.159 14.6105 108.934 15.7165 108.505 16.7323C108.076 17.7481 107.489 18.6284 106.721 19.396C105.931 20.1635 105.051 20.7728 104.058 21.2017C103.019 21.6308 101.913 21.8563 100.785 21.8563C99.6562 21.8563 98.5499 21.6308 97.5341 21.2017ZM96.7212 9.41852C95.6379 10.5021 95.0281 11.9467 95.0281 13.4819C95.0281 15.0168 95.6379 16.4614 96.7212 17.5449C97.8052 18.6284 99.2495 19.2379 100.785 19.2379C102.32 19.2379 103.764 18.6284 104.848 17.5449C105.931 16.4614 106.541 15.0168 106.541 13.4819C106.541 11.9467 105.931 10.5021 104.848 9.41852C103.764 8.33508 102.32 7.7256 100.785 7.7256C99.2495 7.7256 97.8052 8.33508 96.7212 9.41852Z" fill="#B90E00"/>
<path id="Path 5" d="M122.995 11.0892V21.8566H120.377V4.31738L130.896 15.8523V5.10729H133.537V22.6242L122.995 11.0892Z" fill="#B90E00"/>
<path id="Path 6" d="M148.888 7.45472H144.283V21.8562H141.642V7.45472H137.037V5.10693H148.888V7.45472Z" fill="#B90E00"/>
<path id="Path 7" d="M41.5148 17.8419L45.8666 5.10693H48.6784L41.5817 25.2349L33.9941 5.10693H36.8508L41.5148 17.8419Z" fill="#B90E00"/>
<rect id="Rectangle 3" x="52.2754" y="5.09033" width="2.61857" height="16.7664" fill="#B90E00"/>
<path id="Path 8" d="M68.2341 18.4932C67.76 20.1186 66.2926 21.4052 64.4642 21.7664C64.1254 21.8343 63.7871 21.8568 63.4483 21.8568C62.7713 21.8568 62.0941 21.7439 61.4622 21.4956C60.4008 21.0667 59.4757 20.3668 58.6855 19.3512L60.7624 17.726C61.2364 18.358 61.8005 18.8095 62.41 19.0351C62.9067 19.2381 63.4483 19.2834 63.9451 19.1704C64.8026 19.0125 65.5026 18.4481 65.706 17.7711C65.9316 17.0036 65.4124 16.3262 64.9382 15.8749C64.1933 15.175 62.9745 13.9788 62.8843 13.8883L60.83 11.9471C60.198 11.3376 59.7691 10.6604 59.5434 9.9381C59.3176 9.23845 59.2952 8.4935 59.4984 7.81636C59.7014 7.09386 60.1302 6.46179 60.7396 5.94271C61.304 5.4687 62.0038 5.13012 62.7487 4.99463C63.5616 4.81406 64.419 4.88175 65.2316 5.17531C66.0896 5.51376 66.857 6.0782 67.5117 6.86822L65.4575 8.51595C64.5996 7.47762 63.7192 7.47762 63.2453 7.56787C62.6587 7.68068 62.1617 8.06439 62.0263 8.53857C61.9361 8.85446 61.9586 9.37378 62.6587 10.0509L65.4575 12.7372C65.8638 13.1435 66.3604 13.6174 66.7216 13.9561C67.4438 14.6108 67.9407 15.3556 68.1887 16.1457C68.4372 16.9131 68.4597 17.726 68.2341 18.4932" fill="#B90E00"/>
<rect id="Rectangle 4" x="72.0254" y="5.09033" width="2.61849" height="16.7664" fill="#B90E00"/>
<path id="Path 9" fill-rule="evenodd" clip-rule="evenodd" d="M81.4153 5.10693H84.1691C86.3813 5.10693 87.6681 6.01 88.3452 6.75495C89.2482 7.74819 89.6997 9.07998 89.6997 10.6374C89.6997 12.1951 89.2482 13.5494 88.3452 14.5201C87.6681 15.2876 86.3813 16.1905 84.1691 16.1905H81.8216V21.8563H79.2031V5.10693H81.4153ZM87.3517 10.6378C87.3517 9.98316 87.216 9.03524 86.6065 8.3579C86.0648 7.77107 85.2522 7.45507 84.1687 7.45507H81.8211V13.8208H84.1687C85.2522 13.8208 86.0648 13.5273 86.6065 12.9404C87.216 12.2631 87.3517 11.315 87.3517 10.6378" fill="#B90E00"/>
<path id="Path 10" fill-rule="evenodd" clip-rule="evenodd" d="M97.5341 21.2017C96.5183 20.7728 95.6381 20.1635 94.8707 19.396C94.1034 18.6284 93.4937 17.7481 93.0647 16.7323C92.6359 15.7165 92.4102 14.6105 92.4102 13.4819C92.4102 12.353 92.6359 11.247 93.0647 10.2085C93.4937 9.21535 94.1034 8.33502 94.8707 7.54494C95.6381 6.77745 96.5183 6.19054 97.5341 5.76165C98.5499 5.33291 99.6562 5.10693 100.785 5.10693C101.913 5.10693 103.019 5.33292 104.058 5.76165C105.051 6.19054 105.931 6.77745 106.721 7.54494C107.489 8.33502 108.076 9.21535 108.505 10.2085C108.934 11.247 109.159 12.353 109.159 13.4819C109.159 14.6105 108.934 15.7165 108.505 16.7323C108.076 17.7481 107.489 18.6284 106.721 19.396C105.931 20.1635 105.051 20.7728 104.058 21.2017C103.019 21.6308 101.913 21.8563 100.785 21.8563C99.6562 21.8563 98.5499 21.6308 97.5341 21.2017ZM96.7212 9.41852C95.6379 10.5021 95.0281 11.9467 95.0281 13.4819C95.0281 15.0168 95.6379 16.4614 96.7212 17.5449C97.8052 18.6284 99.2495 19.2379 100.785 19.2379C102.32 19.2379 103.764 18.6284 104.848 17.5449C105.931 16.4614 106.541 15.0168 106.541 13.4819C106.541 11.9467 105.931 10.5021 104.848 9.41852C103.764 8.33508 102.32 7.7256 100.785 7.7256C99.2495 7.7256 97.8052 8.33508 96.7212 9.41852Z" fill="#B90E00"/>
<path id="Path 11" d="M122.995 11.0892V21.8566H120.377V4.31738L130.896 15.8523V5.10729H133.537V22.6242L122.995 11.0892Z" fill="#B90E00"/>
<path id="Path 12" d="M148.888 7.45472H144.283V21.8562H141.642V7.45472H137.037V5.10693H148.888V7.45472Z" fill="#B90E00"/>
</g>
<g id="Group 3" clip-path="url(#clip1)">
<path id="Path 13" fill-rule="evenodd" clip-rule="evenodd" d="M14.1733 0C6.34565 0 0 6.34574 0 14.1733C0 22.0011 6.34565 28.3466 14.1733 28.3466C22.0009 28.3466 28.3465 22.0011 28.3465 14.1733C28.3465 6.34574 22.0009 0 14.1733 0ZM16.9542 23.2753H10.3798L11.7867 21.6464C13.6731 19.4629 14.4679 17.3842 14.1496 15.4682C13.6779 12.6268 10.8809 10.9615 10.8527 10.945L9.95949 10.4296L10.5176 9.56235L13.6054 4.73572C13.8985 4.2775 14.5077 4.14348 14.966 4.43676C15.4243 4.72998 15.5582 5.33909 15.2649 5.79742L12.6877 9.82624C13.7958 10.6875 15.6428 12.4808 16.0897 15.1254C16.4296 17.134 15.9011 19.2063 14.5184 21.3052H16.9542C17.4981 21.3052 17.9393 21.7462 17.9393 22.2903C17.9393 22.8343 17.4981 23.2753 16.9542 23.2753" fill="#001C33"/>
<g id="Group 2">
<path id="Path 14" d="M117.063 14.2769C117.063 16.865 115.966 18.9629 114.613 18.9629C113.261 18.9629 112.164 16.865 112.164 14.2769C112.164 12.7658 112.661 10.3873 113.345 9.59113C113.706 9.17151 113.981 9.59113 114.613 9.59113C115.115 9.59113 115.731 9.17724 115.997 9.55805C116.603 10.4275 117.063 12.6495 117.063 14.2769" fill="#001C33"/>
<rect id="Rectangle 5" x="113.311" y="9.74268" width="2.61848" height="11.956" fill="#001C33"/>
<path id="Path 15" d="M116.41 6.75017C116.41 5.76117 115.608 4.95947 114.619 4.95947C113.63 4.95947 112.828 5.76117 112.828 6.75017C112.828 7.73941 113.63 8.54124 114.619 8.54124C115.608 8.54124 116.41 7.73941 116.41 6.75017Z" fill="#001C33"/>
</g>
</g>
</g>
<defs>
<clipPath id="clip0">
<rect width="148.886" height="28.3466" fill="white"/>
</clipPath>
<clipPath id="clip1">
<rect width="117.062" height="28.3466" fill="white"/>
</clipPath>
</defs>
</svg>
